<svg width="503.09999999999997" height="73.03884408797425" viewBox="0 0 369.6551724137931 53.66564600326829" class="looka-1j8o68f"><defs id="SvgjsDefs1011"></defs><g id="SvgjsG1012" featurekey="PG4fjM-0" transform="matrix(0.7168035571376523,0,0,0.7168035571376523,-5.9315559978466394,-9.558577512565906)" fill="#ffffff"><path xmlns="http://www.w3.org/2000/svg" d="M77.486,39.803c0.586-3.135,0.311-8.523-4.847-12.286c-1.596-1.163-4.16-2.285-7.121-2.285  c-2.379,0-5.013,0.724-7.606,2.733c-4.115-8.135-10.738-10.63-16.497-10.63c-3.967,0-7.523,1.184-9.57,2.522  c-4.81,3.145-10.341,9.182-8.238,19.855c-6.496,1.791-11.332,7.622-11.332,14.674c0,7.479,5.407,13.68,12.523,14.942V48.914h25.457  l-1.023,0c-0.35-2.309-0.896-4.41-1.738-6.427c-0.137,0.029-0.279,0.046-0.425,0.046c-1.119,0-2.025-0.906-2.025-2.024  c0-0.589,0.255-1.114,0.656-1.484c-0.762-1.219-1.666-2.433-2.732-3.67c-0.485,0.321-1.064,0.51-1.689,0.51  c-1.695,0-3.068-1.374-3.068-3.068c0-1.694,1.374-3.068,3.068-3.068c1.694,0,3.068,1.374,3.068,3.068c0,0.707-0.249,1.35-0.65,1.868  c1.136,1.311,2.095,2.594,2.899,3.881c0.152-0.037,0.309-0.061,0.472-0.061c1.118,0,2.025,0.907,2.025,2.025  c0,0.604-0.271,1.141-0.69,1.512c0.911,2.161,1.491,4.409,1.852,6.894h25.742v20.406c7.085-1.286,12.463-7.474,12.463-14.933  C88.461,47.463,84.235,41.912,77.486,39.803z"></path><path xmlns="http://www.w3.org/2000/svg" d="M81.69,37.171c-0.056-3.597-1.221-8.893-6.693-12.885c-2.663-1.941-6.117-3.054-9.479-3.054  c-2.132,0-4.232,0.442-6.223,1.297c-5.647-7.905-13.419-9.194-17.88-9.194c-4.324,0-8.72,1.187-11.759,3.174  c-7.431,4.858-11.06,12.086-10.434,20.596c-6.586,3.187-10.947,9.872-10.947,17.281c0,9.675,7.203,17.678,16.523,18.982v-2.021  c-8.214-1.288-14.523-8.393-14.523-16.962c0-7.099,4.477-13.458,11.084-16.033c-1.077-8.364,2.216-15.479,9.391-20.17  c2.105-1.377,6.012-2.848,10.665-2.848c4.299,0,11.982,1.323,17.185,9.765c2.169-1.241,4.488-1.869,6.918-1.868  c4.186,0,7.198,1.867,8.3,2.669c5.483,4,6.038,9.495,5.843,12.558c6.705,2.723,10.8,8.692,10.8,15.927  c0,8.548-6.279,15.639-14.463,16.953v2.021c9.291-1.331,16.463-9.32,16.463-18.974C92.461,46.771,88.409,40.416,81.69,37.171z"></path><path xmlns="http://www.w3.org/2000/svg" d="M86.242,85.336c0-0.046-0.036-0.083-0.083-0.083H79.12c0.003-0.003,0.003-0.006,0.003-0.01H56.295  c-0.093,0.47-0.509,0.823-1.002,0.823h-9.848c-0.496,0-0.909-0.354-1.002-0.823h-22.83c0,0.004,0.001,0.007,0.003,0.01h-7.04  c-0.044,0-0.083,0.037-0.083,0.083v1.025c0,0.046,0.018,0.089,0.048,0.118l0,0c0,0,0.815,1.724,3.297,1.724h65.057  c2.479,0,3.296-1.724,3.296-1.724l0,0c0.03-0.029,0.05-0.072,0.05-0.118V85.336L86.242,85.336z"></path><path xmlns="http://www.w3.org/2000/svg" d="M77.434,45.545H49.583c0.279,1.082,0.503,2.197,0.673,3.369h25.727v31.667v0.291H24.799v-0.291V48.914h25.457l-1.023,0  c-0.178-1.171-0.407-2.288-0.698-3.368H23.305c-1.051,0-1.915,0.863-1.915,1.915v36.385h57.955V47.459  C79.345,46.406,78.481,45.545,77.434,45.545z"></path><path xmlns="http://www.w3.org/2000/svg" d="M49.946,64.29h0.846c0-6.279-0.012-11.16-0.626-15.376h-0.866C49.936,53.113,49.946,57.987,49.946,64.29z"></path><circle xmlns="http://www.w3.org/2000/svg" cx="50.369" cy="64.29" r="3.069"></circle><circle xmlns="http://www.w3.org/2000/svg" cx="50.262" cy="54.449" r="2.025"></circle></g><g id="SvgjsG1013" featurekey="jxYttZ-0" transform="matrix(2.5035019883653833,0,0,2.5035019883653833,75.49369654031858,-8.566178899745005)" fill="#ffffff"><path d="M12.92 10.52 c0 3.04 -2.36 5.5 -5.28 5.52 l-3.6 0 l0 3.96 l-2.24 0 l0 -15 l5.84 0 c2.92 0.02 5.28 2.48 5.28 5.52 z M7.6 14.2 c1.72 0 3.1 -1.66 3.1 -3.68 s-1.38 -3.68 -3.1 -3.68 l-3.56 0 l0 7.36 l3.56 0 z M21.26 10.24 l-0.44 1.62 c-0.14 -0.08 -0.58 -0.22 -0.94 -0.22 c-1.7 0 -2.5 1.62 -2.5 3.62 l0 4.74 l-2.06 0 l0 -9.88 l2.06 0 l0 1.4 c0.24 -0.92 1.3 -1.58 2.48 -1.58 c0.54 0 1.12 0.14 1.4 0.3 z M27.200000000000003 11.64 c-1.7 0 -3.08 1.42 -3.08 3.44 c0 2 1.38 3.44 3.08 3.44 s3.08 -1.44 3.08 -3.44 c0 -2.02 -1.38 -3.44 -3.08 -3.44 z M27.200000000000003 9.94 c2.84 0 5.14 2.2 5.14 5.14 s-2.3 5.12 -5.14 5.12 s-5.14 -2.18 -5.14 -5.12 s2.3 -5.14 5.14 -5.14 z M37.7 6.5 c0 0.64 -0.5 1.14 -1.12 1.14 c-0.64 0 -1.14 -0.5 -1.14 -1.14 c0 -0.62 0.5 -1.12 1.14 -1.12 c0.62 0 1.12 0.5 1.12 1.12 z M32.940000000000005 22.16 c0.3 0.14 0.8 0.32 1.44 0.06 c0.98 -0.44 1.14 -1.04 1.14 -2.68 l0 -9.42 l2.06 0 l0 9.42 c0 1.56 0.02 2.1 -0.6 3.1 c-0.62 1.04 -1.68 1.42 -2.86 1.42 c-0.54 0 -0.92 -0.14 -1.18 -0.3 l0 -1.6 z M49.82000000000001 15.08 l0 0.74 l-7.78 0 c0 1.82 1.74 2.7 3.02 2.7 c0.94 0 1.98 -0.5 2.54 -1.3 l1.42 1.28 c-0.66 0.9 -1.74 1.7 -3.96 1.7 c-3.2 0 -5.16 -2.18 -5.16 -5.12 s1.9 -5.14 4.96 -5.14 s4.46 1.7 4.88 4.18 c0.06 0.32 0.08 0.64 0.08 0.96 z M42.080000000000005 14.120000000000001 l5.58 0 c0 -1.6 -1.28 -2.48 -2.8 -2.48 s-2.78 1.02 -2.78 2.48 z M58.720000000000006 17.42 l1.42 1.28 c-0.94 1.04 -2.28 1.5 -3.78 1.5 c-2.84 0 -5.14 -2.18 -5.14 -5.12 s2.3 -5.14 5.14 -5.14 c1.5 0 2.84 0.46 3.78 1.5 l-1.42 1.28 c-0.58 -0.78 -1.42 -1.08 -2.36 -1.08 c-1.7 0 -3.08 1.42 -3.08 3.44 c0 2 1.38 3.44 3.08 3.44 c0.94 0 1.78 -0.3 2.36 -1.1 z M65.94 18.36 c0.64 0.26 1.14 0.08 1.44 -0.06 l0 1.6 c-0.26 0.16 -0.64 0.3 -1.18 0.3 c-1.18 0 -2.22 -0.38 -2.86 -1.42 c-0.6 -1 -0.6 -1.54 -0.6 -3.1 l0 -3.88 l-1.2 0 l0 -1.68 l1.2 0 l0 -3.12 l2.06 0 l0 3.12 l2.58 0 l0 1.68 l-2.58 0 l0 3.88 c0 1.64 0.16 2.24 1.14 2.68 z M80.48000000000002 14.5 c0.06 0.14 0.54 1.5 -0.08 2.92 c-0.72 1.7 -2.74 2.76 -5.26 2.78 c-2.18 0 -4.16 -0.96 -5.56 -2.48 l1.48 -1.48 c0.7 1.24 2.48 2.12 4.08 2.12 c1.74 -0.02 2.76 -0.66 3.18 -1.66 c0.32 -0.74 0.06 -1.54 0.04 -1.56 c-0.42 -1.16 -1.58 -1.42 -3.22 -1.92 c-1.86 -0.56 -4 -1.02 -4.7 -2.98 c-0.38 -1.02 -0.28 -2.2 0.24 -3.16 c1.16 -2.2 4.12 -2.26 4.46 -2.26 c2.2 0 4.16 0.96 5.56 2.5 l-1.46 1.46 c-0.82 -1.2 -2.42 -2.12 -4.1 -2.12 c-0.02 0 -1.78 0 -2.46 1.28 c-0.26 0.5 -0.32 1.16 -0.14 1.68 c0.4 1.1 1.54 1.36 3.14 1.84 c1.9 0.58 4.04 1.02 4.8 3.04 z M92.66000000000003 14.3 l0 5.7 l-2.06 0 l0 -5.5 c0 -2 -0.62 -2.88 -2.32 -2.88 c-1.92 0 -2.7 1.34 -2.7 3.08 l0 5.3 l-2.06 0 l0 -15 l2.06 0 l0 6.72 c0.28 -0.88 1.52 -1.68 2.7 -1.76 c2.68 -0.2 4.38 1.1 4.38 4.34 z M104.58000000000001 15.08 l0 0.74 l-7.78 0 c0 1.82 1.74 2.7 3.02 2.7 c0.94 0 1.98 -0.5 2.54 -1.3 l1.42 1.28 c-0.66 0.9 -1.74 1.7 -3.96 1.7 c-3.2 0 -5.16 -2.18 -5.16 -5.12 s1.9 -5.14 4.96 -5.14 s4.46 1.7 4.88 4.18 c0.06 0.32 0.08 0.64 0.08 0.96 z M96.84000000000002 14.120000000000001 l5.58 0 c0 -1.6 -1.28 -2.48 -2.8 -2.48 s-2.78 1.02 -2.78 2.48 z M108.86000000000003 4.619999999999999 l0 15.38 l-2.08 0 l0 -15.38 l2.08 0 z M117.50000000000003 6.699999999999999 c-0.3 -0.14 -0.8 -0.32 -1.44 -0.06 c-0.98 0.44 -1.14 0.84 -1.14 2.48 l0 1 l2.58 0 l0 1.68 l-2.58 0 l0 8.2 l-2.06 0 l0 -8.2 l-1.2 0 l0 -1.68 l1.2 0 l0 -1 c0 -1.56 0 -1.92 0.6 -2.9 c0.64 -1.06 1.68 -1.42 2.86 -1.42 c0.54 0 0.92 0.14 1.18 0.3 l0 1.6 z"></path></g></svg>